999
dxfrw 0.6.3
  0
SECTION
  2
HEADER
  9
$ACADVER
  1
AC1021
  9
$DWGCODEPAGE
  3
ANSI_1252
  9
$INSBASE
 10
0
 20
0
 30
0
  9
$EXTMIN
 10
-13.92838827718412
 20
-13.92838827718412
 30
0
  9
$EXTMAX
 10
43.92838827718412
 20
14.16045407791901
 30
0
  9
$LIMMIN
 10
0
 20
0
  9
$LIMMAX
 10
420
 20
297
  9
$ORTHOMODE
 70
    0
  9
$REGENMODE
 70
    1
  9
$FILLMODE
 70
    1
  9
$QTEXTMODE
 70
    0
  9
$MIRRTEXT
 70
    0
  9
$LTSCALE
 40
1
  9
$ATTMODE
 70
    0
  9
$TEXTSIZE
 40
2.5
  9
$TRACEWID
 40
15.68
  9
$TEXTSTYLE
  7
STANDARD
  9
$CLAYER
  8
Skala 1
  9
$CELTYPE
  6
BYLAYER
  9
$CECOLOR
 62
  256
  9
$CELTSCALE
 40
1
  9
$DISPSILH
 70
    0
  9
$DIMSCALE
 40
2.5
  9
$DIMASZ
 40
2.5
  9
$DIMEXO
 40
0.625
  9
$DIMDLI
 40
3.75
  9
$DIMRND
 40
0
  9
$DIMDLE
 40
0
  9
$DIMEXE
 40
1.25
  9
$DIMTP
 40
0
  9
$DIMTM
 40
0
  9
$DIMTXT
 40
2.5
  9
$DIMCEN
 40
2.5
  9
$DIMTSZ
 40
0
  9
$DIMTOL
 70
    0
  9
$DIMLIM
 70
    0
  9
$DIMTIH
 70
    0
  9
$DIMTOH
 70
    0
  9
$DIMSE1
 70
    0
  9
$DIMSE2
 70
    0
  9
$DIMTAD
 70
    1
  9
$DIMZIN
 70
    8
  9
$DIMBLK
  1

  9
$DIMASO
 70
    1
  9
$DIMSHO
 70
    1
  9
$DIMPOST
  1

  9
$DIMAPOST
  1

  9
$DIMALT
 70
    0
  9
$DIMALTD
 70
    3
  9
$DIMALTF
 40
0.03937
  9
$DIMLFAC
 40
1
  9
$DIMTOFL
 70
    1
  9
$DIMTVP
 40
0
  9
$DIMTIX
 70
    0
  9
$DIMSOXD
 70
    0
  9
$DIMSAH
 70
    0
  9
$DIMBLK1
  1

  9
$DIMBLK2
  1

  9
$DIMSTYLE
  2
STANDARD
  9
$DIMCLRD
 70
    0
  9
$DIMCLRE
 70
    0
  9
$DIMCLRT
 70
    0
  9
$DIMTFAC
 40
1
  9
$DIMGAP
 40
0.625
  9
$DIMJUST
 70
    0
  9
$DIMSD1
 70
    0
  9
$DIMSD2
 70
    0
  9
$DIMTOLJ
 70
    0
  9
$DIMTZIN
 70
    8
  9
$DIMALTZ
 70
    0
  9
$DIMALTTZ
 70
    0
  9
$DIMUPT
 70
    0
  9
$DIMDEC
 70
    2
  9
$DIMTDEC
 70
    2
  9
$DIMALTU
 70
    2
  9
$DIMALTTD
 70
    3
  9
$DIMTXSTY
  7
STANDARD
  9
$DIMAUNIT
 70
    0
  9
$DIMADEC
 70
    0
  9
$DIMALTRND
 40
0
  9
$DIMAZIN
 70
    0
  9
$DIMDSEP
 70
   44
  9
$DIMATFIT
 70
    3
  9
$DIMFRAC
 70
    0
  9
$DIMLDRBLK
  1
STANDARD
  9
$DIMLUNIT
 70
    2
  9
$DIMLWD
 70
   -2
  9
$DIMLWE
 70
   -2
  9
$DIMTMOVE
 70
    0
  9
$DIMFXL
 40
1
  9
$DIMFXLON
 70
    0
  9
$DIMJOGANG
 40
0.7854
  9
$DIMTFILL
 70
    0
  9
$DIMTFILLCLR
 70
    0
  9
$DIMARCSYM
 70
    0
  9
$DIMLTYPE
  6

  9
$DIMLTEX1
  6

  9
$DIMLTEX2
  6

  9
$LUNITS
 70
    2
  9
$LUPREC
 70
    4
  9
$SKETCHINC
 40
1
  9
$FILLETRAD
 40
0
  9
$AUNITS
 70
    0
  9
$AUPREC
 70
    2
  9
$MENU
  1
.
  9
$ELEVATION
 40
0
  9
$PELEVATION
 40
0
  9
$THICKNESS
 40
0
  9
$LIMCHECK
 70
    0
  9
$CHAMFERA
 40
0
  9
$CHAMFERB
 40
0
  9
$CHAMFERC
 40
0
  9
$CHAMFERD
 40
0
  9
$SKPOLY
 70
    0
  9
$USRTIMER
 70
    1
  9
$ANGBASE
 50
0
  9
$ANGDIR
 70
    0
  9
$PDMODE
 70
   34
  9
$PDSIZE
 40
0
  9
$PLINEWID
 40
0
  9
$SPLFRAME
 70
    0
  9
$SPLINETYPE
 70
    2
  9
$SPLINESEGS
 70
    8
  9
$HANDSEED
  5
20000
  9
$SURFTAB1
 70
    6
  9
$SURFTAB2
 70
    6
  9
$SURFTYPE
 70
    6
  9
$SURFU
 70
    6
  9
$SURFV
 70
    6
  9
$UCSBASE
  2

  9
$UCSNAME
  2

  9
$UCSORG
 10
0
 20
0
 30
0
  9
$UCSXDIR
 10
1
 20
0
 30
0
  9
$UCSYDIR
 10
0
 20
1
 30
0
  9
$UCSORTHOREF
  2

  9
$UCSORTHOVIEW
 70
    0
  9
$UCSORGTOP
 10
0
 20
0
 30
0
  9
$UCSORGBOTTOM
 10
0
 20
0
 30
0
  9
$UCSORGLEFT
 10
0
 20
0
 30
0
  9
$UCSORGRIGHT
 10
0
 20
0
 30
0
  9
$UCSORGFRONT
 10
0
 20
0
 30
0
  9
$UCSORGBACK
 10
0
 20
0
 30
0
  9
$PUCSBASE
  2

  9
$PUCSNAME
  2

  9
$PUCSORG
 10
0
 20
0
 30
0
  9
$PUCSXDIR
 10
1
 20
0
 30
0
  9
$PUCSYDIR
 10
0
 20
1
 30
0
  9
$PUCSORTHOREF
  2

  9
$PUCSORTHOVIEW
 70
    0
  9
$PUCSORGTOP
 10
0
 20
0
 30
0
  9
$PUCSORGBOTTOM
 10
0
 20
0
 30
0
  9
$PUCSORGLEFT
 10
0
 20
0
 30
0
  9
$PUCSORGRIGHT
 10
0
 20
0
 30
0
  9
$PUCSORGFRONT
 10
0
 20
0
 30
0
  9
$PUCSORGBACK
 10
0
 20
0
 30
0
  9
$USERI1
 70
    0
  9
$USERI2
 70
    0
  9
$USERI3
 70
    0
  9
$USERI4
 70
    0
  9
$USERI5
 70
    0
  9
$USERR1
 40
0
  9
$USERR2
 40
0
  9
$USERR3
 40
0
  9
$USERR4
 40
0
  9
$USERR5
 40
0
  9
$WORLDVIEW
 70
    1
  9
$SHADEDGE
 70
    3
  9
$SHADEDIF
 70
   70
  9
$TILEMODE
 70
    1
  9
$MAXACTVP
 70
   64
  9
$PINSBASE
 10
0
 20
0
 30
0
  9
$PLIMCHECK
 70
    0
  9
$PEXTMIN
 10
0
 20
0
 30
0
  9
$PEXTMAX
 10
0
 20
0
 30
0
  9
$GRIDMODE
 70
    1
  9
$SNAPSTYLE
 70
    0
  9
$PLIMMIN
 10
0
 20
0
  9
$PLIMMAX
 10
210
 20
297
  9
$UNITMODE
 70
    0
  9
$VISRETAIN
 70
    1
  9
$PLINEGEN
 70
    0
  9
$PSLTSCALE
 70
    1
  9
$TREEDEPTH
 70
 3020
  9
$CMLSTYLE
  2
Standard
  9
$CMLJUST
 70
    0
  9
$CMLSCALE
 40
20
  9
$PROXYGRAPHICS
 70
    1
  9
$MEASUREMENT
 70
    1
  9
$CELWEIGHT
370
   -1
  9
$ENDCAPS
280
    0
  9
$JOINSTYLE
280
    0
  9
$LWDISPLAY
290
    0
  9
$INSUNITS
 70
    4
  9
$HYPERLINKBASE
  1

  9
$STYLESHEET
  1

  9
$XEDIT
290
    1
  9
$CEPSNTYPE
380
    0
  9
$PSTYLEMODE
290
    1
  9
$EXTNAMES
290
    1
  9
$PSVPSCALE
 40
1
  9
$OLESTARTUP
290
    0
  9
$SORTENTS
280
  127
  9
$INDEXCTL
280
    0
  9
$HIDETEXT
280
    1
  9
$XCLIPFRAME
290
    0
  9
$HALOGAP
280
    0
  9
$OBSCOLOR
 70
  257
  9
$OBSLTYPE
280
    0
  9
$INTERSECTIONDISPLAY
280
    0
  9
$INTERSECTIONCOLOR
 70
  257
  9
$DIMASSOC
280
    1
  9
$PROJECTNAME
  1

  9
$CAMERADISPLAY
290
    0
  9
$LENSLENGTH
 40
50
  9
$CAMERAHEIGHT
 40
0
  9
$STEPSPERSEC
 40
2
  9
$STEPSIZE
 40
50
  9
$3DDWFPREC
 40
2
  9
$PSOLWIDTH
 40
5
  9
$PSOLHEIGHT
 40
80
  9
$LOFTANG1
 40
1.570796326794897
  9
$LOFTANG2
 40
1.570796326794897
  9
$LOFTMAG1
 40
0
  9
$LOFTMAG2
 40
0
  9
$LOFTPARAM
 70
    7
  9
$LOFTNORMALS
280
    1
  9
$LATITUDE
 40
1
  9
$LONGITUDE
 40
1
  9
$NORTHDIRECTION
 40
0
  9
$TIMEZONE
 70
-8000
  9
$LIGHTGLYPHDISPLAY
280
    1
  9
$TILEMODELIGHTSYNCH
280
    1
  9
$SOLIDHIST
280
    1
  9
$SHOWHIST
280
    1
  9
$DWFFRAME
280
    2
  9
$DGNFRAME
280
    0
  9
$REALWORLDSCALE
290
    1
  9
$INTERFERECOLOR
 62
    1
  9
$CSHADOW
280
    0
  9
$SHADOWPLANELOCATION
 40
0
  0
ENDSEC
  0
SECTION
  2
CLASSES
  0
ENDSEC
  0
SECTION
  2
TABLES
  0
TABLE
  2
VPORT
  5
8
330
0
100
AcDbSymbolTable
 70
    1
  0
VPORT
  5
31
330
2
100
AcDbSymbolTableRecord
100
AcDbViewportTableRecord
  2
*ACTIVE
 70
    0
 10
0
 20
0
 11
1
 21
1
 12
16.06146722279465
 22
7.759162909562636
 13
0
 23
0
 14
10
 24
10
 15
10
 25
10
 16
0
 26
0
 36
1
 17
0
 27
0
 37
0
 40
32.58848422016307
 41
1.860714285714286
 42
50
 43
0
 44
0
 50
0
 51
0
 71
    0
 72
  100
 73
    1
 74
    3
 75
    0
 76
    1
 77
    0
 78
    0
281
    0
 65
    1
110
0
120
0
130
0
111
1
121
0
131
0
112
0
122
1
132
0
 79
    0
146
0
348
10020
 60
    7
 61
    5
292
1
282
    1
141
0
142
0
 63
  250
421
3358443
  0
ENDTAB
  0
TABLE
  2
LTYPE
  5
5
330
0
100
AcDbSymbolTable
 70
    4
  0
LTYPE
  5
14
330
5
100
AcDbSymbolTableRecord
100
AcDbLinetypeTableRecord
  2
ByBlock
 70
    0
  3

 72
   65
 73
    0
 40
0
  0
LTYPE
  5
15
330
5
100
AcDbSymbolTableRecord
100
AcDbLinetypeTableRecord
  2
ByLayer
 70
    0
  3

 72
   65
 73
    0
 40
0
  0
LTYPE
  5
16
330
5
100
AcDbSymbolTableRecord
100
AcDbLinetypeTableRecord
  2
Continuous
 70
    0
  3
Solid line
 72
   65
 73
    0
 40
0
  0
LTYPE
  5
32
330
5
100
AcDbSymbolTableRecord
100
AcDbLinetypeTableRecord
  2
DOT
 70
    0
  3
Dot . . . . . . . . . . . . . . . . . . . . . .
 72
   65
 73
    2
 40
6.35
 49
0
 74
    0
 49
-6.35
 74
    0
  0
LTYPE
  5
33
330
5
100
AcDbSymbolTableRecord
100
AcDbLinetypeTableRecord
  2
DOTTINY
 70
    0
  3
Dot (.15x) .....................................
 72
   65
 73
    2
 40
0.9525
 49
0
 74
    0
 49
-0.9525
 74
    0
  0
LTYPE
  5
34
330
5
100
AcDbSymbolTableRecord
100
AcDbLinetypeTableRecord
  2
DOT2
 70
    0
  3
Dot (.5x) .....................................
 72
   65
 73
    2
 40
3.175
 49
0
 74
    0
 49
-3.175
 74
    0
  0
LTYPE
  5
35
330
5
100
AcDbSymbolTableRecord
100
AcDbLinetypeTableRecord
  2
DOTX2
 70
    0
  3
Dot (2x) .  .  .  .  .  .  .  .  .  .  .  .  .
 72
   65
 73
    2
 40
12.7
 49
0
 74
    0
 49
-12.7
 74
    0
  0
LTYPE
  5
36
330
5
100
AcDbSymbolTableRecord
100
AcDbLinetypeTableRecord
  2
DASHED
 70
    0
  3
Dashed _ _ _ _ _ _ _ _ _ _ _ _ _ _ _ _ _
 72
   65
 73
    2
 40
19.05
 49
12.7
 74
    0
 49
-6.35
 74
    0
  0
LTYPE
  5
37
330
5
100
AcDbSymbolTableRecord
100
AcDbLinetypeTableRecord
  2
DASHEDTINY
 70
    0
  3
Dashed (.15x) _ _ _ _ _ _ _ _ _ _ _ _ _ _ _ _ _
 72
   65
 73
    2
 40
2.8575
 49
1.905
 74
    0
 49
-0.9525
 74
    0
  0
LTYPE
  5
38
330
5
100
AcDbSymbolTableRecord
100
AcDbLinetypeTableRecord
  2
DASHED2
 70
    0
  3
Dashed (.5x) _ _ _ _ _ _ _ _ _ _ _ _ _ _ _ _ _
 72
   65
 73
    2
 40
9.524999999999999
 49
6.35
 74
    0
 49
-3.175
 74
    0
  0
LTYPE
  5
39
330
5
100
AcDbSymbolTableRecord
100
AcDbLinetypeTableRecord
  2
DASHEDX2
 70
    0
  3
Dashed (2x) ____  ____  ____  ____  ____  ___
 72
   65
 73
    2
 40
38.09999999999999
 49
25.4
 74
    0
 49
-12.7
 74
    0
  0
LTYPE
  5
3A
330
5
100
AcDbSymbolTableRecord
100
AcDbLinetypeTableRecord
  2
DASHDOT
 70
    0
  3
Dash dot __ . __ . __ . __ . __ . __ . __ . __
 72
   65
 73
    4
 40
25.4
 49
12.7
 74
    0
 49
-6.35
 74
    0
 49
0
 74
    0
 49
-6.35
 74
    0
  0
LTYPE
  5
3B
330
5
100
AcDbSymbolTableRecord
100
AcDbLinetypeTableRecord
  2
DASHDOTTINY
 70
    0
  3
Dash dot (.15x) _._._._._._._._._._._._._._._.
 72
   65
 73
    4
 40
3.81
 49
1.905
 74
    0
 49
-0.9525
 74
    0
 49
0
 74
    0
 49
-0.9525
 74
    0
  0
LTYPE
  5
3C
330
5
100
AcDbSymbolTableRecord
100
AcDbLinetypeTableRecord
  2
DASHDOT2
 70
    0
  3
Dash dot (.5x) _._._._._._._._._._._._._._._.
 72
   65
 73
    4
 40
12.7
 49
6.35
 74
    0
 49
-3.175
 74
    0
 49
0
 74
    0
 49
-3.175
 74
    0
  0
LTYPE
  5
3D
330
5
100
AcDbSymbolTableRecord
100
AcDbLinetypeTableRecord
  2
DASHDOTX2
 70
    0
  3
Dash dot (2x) ____  .  ____  .  ____  .  ___
 72
   65
 73
    4
 40
50.8
 49
25.4
 74
    0
 49
-12.7
 74
    0
 49
0
 74
    0
 49
-12.7
 74
    0
  0
LTYPE
  5
3E
330
5
100
AcDbSymbolTableRecord
100
AcDbLinetypeTableRecord
  2
DIVIDE
 70
    0
  3
Divide ____ . . ____ . . ____ . . ____ . . ____
 72
   65
 73
    6
 40
31.75
 49
12.7
 74
    0
 49
-6.35
 74
    0
 49
0
 74
    0
 49
-6.35
 74
    0
 49
0
 74
    0
 49
-6.35
 74
    0
  0
LTYPE
  5
3F
330
5
100
AcDbSymbolTableRecord
100
AcDbLinetypeTableRecord
  2
DIVIDETINY
 70
    0
  3
Divide (.15x) __..__..__..__..__..__..__..__.._
 72
   65
 73
    6
 40
4.7625
 49
1.905
 74
    0
 49
-0.9525
 74
    0
 49
0
 74
    0
 49
-0.9525
 74
    0
 49
0
 74
    0
 49
-0.9525
 74
    0
  0
LTYPE
  5
40
330
5
100
AcDbSymbolTableRecord
100
AcDbLinetypeTableRecord
  2
DIVIDE2
 70
    0
  3
Divide (.5x) __..__..__..__..__..__..__..__.._
 72
   65
 73
    6
 40
15.875
 49
6.35
 74
    0
 49
-3.175
 74
    0
 49
0
 74
    0
 49
-3.175
 74
    0
 49
0
 74
    0
 49
-3.175
 74
    0
  0
LTYPE
  5
41
330
5
100
AcDbSymbolTableRecord
100
AcDbLinetypeTableRecord
  2
DIVIDEX2
 70
    0
  3
Divide (2x) ________  .  .  ________  .  .  _
 72
   65
 73
    6
 40
63.5
 49
25.4
 74
    0
 49
-12.7
 74
    0
 49
0
 74
    0
 49
-12.7
 74
    0
 49
0
 74
    0
 49
-12.7
 74
    0
  0
LTYPE
  5
42
330
5
100
AcDbSymbolTableRecord
100
AcDbLinetypeTableRecord
  2
BORDER
 70
    0
  3
Border __ __ . __ __ . __ __ . __ __ . __ __ .
 72
   65
 73
    6
 40
44.45
 49
12.7
 74
    0
 49
-6.35
 74
    0
 49
12.7
 74
    0
 49
-6.35
 74
    0
 49
0
 74
    0
 49
-6.35
 74
    0
  0
LTYPE
  5
43
330
5
100
AcDbSymbolTableRecord
100
AcDbLinetypeTableRecord
  2
BORDERTINY
 70
    0
  3
Border (.15x) __.__.__.__.__.__.__.__.__.__.__.
 72
   65
 73
    6
 40
6.6675
 49
1.905
 74
    0
 49
-0.9525
 74
    0
 49
1.905
 74
    0
 49
-0.9525
 74
    0
 49
0
 74
    0
 49
-0.9525
 74
    0
  0
LTYPE
  5
44
330
5
100
AcDbSymbolTableRecord
100
AcDbLinetypeTableRecord
  2
BORDER2
 70
    0
  3
Border (.5x) __.__.__.__.__.__.__.__.__.__.__.
 72
   65
 73
    6
 40
22.225
 49
6.35
 74
    0
 49
-3.175
 74
    0
 49
6.35
 74
    0
 49
-3.175
 74
    0
 49
0
 74
    0
 49
-3.175
 74
    0
  0
LTYPE
  5
45
330
5
100
AcDbSymbolTableRecord
100
AcDbLinetypeTableRecord
  2
BORDERX2
 70
    0
  3
Border (2x) ____  ____  .  ____  ____  .  ___
 72
   65
 73
    6
 40
88.89999999999999
 49
25.4
 74
    0
 49
-12.7
 74
    0
 49
25.4
 74
    0
 49
-12.7
 74
    0
 49
0
 74
    0
 49
-12.7
 74
    0
  0
LTYPE
  5
46
330
5
100
AcDbSymbolTableRecord
100
AcDbLinetypeTableRecord
  2
CENTER
 70
    0
  3
Center ____ _ ____ _ ____ _ ____ _ ____ _ ____
 72
   65
 73
    4
 40
50.8
 49
31.75
 74
    0
 49
-6.35
 74
    0
 49
6.35
 74
    0
 49
-6.35
 74
    0
  0
LTYPE
  5
47
330
5
100
AcDbSymbolTableRecord
100
AcDbLinetypeTableRecord
  2
CENTERTINY
 70
    0
  3
Center (.15x) ___ _ ___ _ ___ _ ___ _ ___ _ ___
 72
   65
 73
    4
 40
7.619999999999999
 49
4.7625
 74
    0
 49
-0.9525
 74
    0
 49
0.9525
 74
    0
 49
-0.9525
 74
    0
  0
LTYPE
  5
48
330
5
100
AcDbSymbolTableRecord
100
AcDbLinetypeTableRecord
  2
CENTER2
 70
    0
  3
Center (.5x) ___ _ ___ _ ___ _ ___ _ ___ _ ___
 72
   65
 73
    4
 40
28.575
 49
19.05
 74
    0
 49
-3.175
 74
    0
 49
3.175
 74
    0
 49
-3.175
 74
    0
  0
LTYPE
  5
49
330
5
100
AcDbSymbolTableRecord
100
AcDbLinetypeTableRecord
  2
CENTERX2
 70
    0
  3
Center (2x) ________  __  ________  __  _____
 72
   65
 73
    4
 40
101.6
 49
63.5
 74
    0
 49
-12.7
 74
    0
 49
12.7
 74
    0
 49
-12.7
 74
    0
  0
ENDTAB
  0
TABLE
  2
LAYER
  5
2
330
0
100
AcDbSymbolTable
 70
    1
  0
LAYER
  5
10
330
2
100
AcDbSymbolTableRecord
100
AcDbLayerTableRecord
  2
0
 70
    0
 62
    7
  6
CONTINUOUS
370
    0
390
F
  0
LAYER
  5
4A
330
2
100
AcDbSymbolTableRecord
100
AcDbLayerTableRecord
  2
Foto
 70
    5
 62
    7
  6
CONTINUOUS
370
    0
390
F
  0
LAYER
  5
4B
330
2
100
AcDbSymbolTableRecord
100
AcDbLayerTableRecord
  2
Geometrie
 70
    1
 62
    3
  6
CONTINUOUS
370
    0
390
F
  0
LAYER
  5
4C
330
2
100
AcDbSymbolTableRecord
100
AcDbLayerTableRecord
  2
Schrift
 70
    0
 62
    7
  6
CONTINUOUS
370
   20
390
F
  0
LAYER
  5
4D
330
2
100
AcDbSymbolTableRecord
100
AcDbLayerTableRecord
  2
Skala 1
 70
    0
 62
    7
  6
CONTINUOUS
370
    5
390
F
  0
LAYER
  5
4E
330
2
100
AcDbSymbolTableRecord
100
AcDbLayerTableRecord
  2
Skala 10
 70
    0
 62
    7
  6
CONTINUOUS
370
   18
390
F
  0
ENDTAB
  0
TABLE
  2
STYLE
  5
3
330
0
100
AcDbSymbolTable
 70
    3
  0
STYLE
  5
4F
330
2
100
AcDbSymbolTableRecord
100
AcDbTextStyleTableRecord
  2
Standard
 70
    0
 40
0
 41
1
 50
0
 71
    0
 42
1
  3
txt
  4

  0
ENDTAB
  0
TABLE
  2
VIEW
  5
6
330
0
100
AcDbSymbolTable
 70
    0
  0
ENDTAB
  0
TABLE
  2
UCS
  5
7
330
0
100
AcDbSymbolTable
 70
    0
  0
ENDTAB
  0
TABLE
  2
APPID
  5
9
330
0
100
AcDbSymbolTable
 70
    1
  0
APPID
  5
12
330
9
100
AcDbSymbolTableRecord
100
AcDbRegAppTableRecord
  2
ACAD
 70
    0
  0
APPID
  5
50
330
9
100
AcDbSymbolTableRecord
100
AcDbRegAppTableRecord
  2
LibreCad
 70
    0
  0
ENDTAB
  0
TABLE
  2
DIMSTYLE
  5
A
330
0
100
AcDbSymbolTable
 70
    1
100
AcDbDimStyleTable
 71
    1
  0
DIMSTYLE
105
51
330
A
100
AcDbSymbolTableRecord
100
AcDbDimStyleTableRecord
  2
Standard
 70
    0
 40
2.5
 41
2.5
 42
0.625
 43
0.38
 44
1.25
 45
0
 46
0
 47
0
 48
0
 49
1
140
2.5
141
0.09
142
0
143
25.4
144
1
145
0
146
1
147
0.625
148
0
 71
    0
 72
    0
 73
    0
 74
    1
 75
    0
 76
    0
 77
    0
 78
    8
 79
    0
170
    0
171
    2
172
    0
173
    0
174
    0
175
    0
176
    0
177
    0
178
    0
179
    0
271
    2
272
    4
273
    2
274
    2
275
    0
276
    0
277
    2
278
   44
279
    0
280
    0
281
    0
282
    0
283
    1
284
    0
285
    0
286
    0
288
    0
289
    3
340
STANDARD
341

371
   -2
372
   -2
  0
ENDTAB
  0
TABLE
  2
BLOCK_RECORD
  5
1
330
0
100
AcDbSymbolTable
 70
    2
  0
BLOCK_RECORD
  5
1F
330
1
100
AcDbSymbolTableRecord
100
AcDbBlockTableRecord
  2
*Model_Space
 70
    0
280
    1
281
    0
  0
BLOCK_RECORD
  5
1E
330
1
100
AcDbSymbolTableRecord
100
AcDbBlockTableRecord
  2
*Paper_Space
 70
    0
280
    1
281
    0
  0
BLOCK_RECORD
  5
52
330
1
100
AcDbSymbolTableRecord
100
AcDbBlockTableRecord
  2
SH
 70
    0
280
    1
281
    0
  0
ENDTAB
  0
ENDSEC
  0
SECTION
  2
BLOCKS
  0
BLOCK
  5
20
330
1F
100
AcDbEntity
  8
0
100
AcDbBlockBegin
  2
*Model_Space
 70
    0
 10
0
 20
0
 30
0
  3
*Model_Space
  1

  0
ENDBLK
  5
21
330
1F
100
AcDbEntity
  8
0
100
AcDbBlockEnd
  0
BLOCK
  5
1C
330
1B
100
AcDbEntity
  8
0
100
AcDbBlockBegin
  2
*Paper_Space
 70
    0
 10
0
 20
0
 30
0
  3
*Paper_Space
  1

  0
ENDBLK
  5
1D
330
1F
100
AcDbEntity
  8
0
100
AcDbBlockEnd
  0
BLOCK
  5
53
330
52
100
AcDbEntity
  8
0
100
AcDbBlockBegin
  2
SH
 70
    0
 10
0
 20
0
  3
SH
  1

  0
ARC
  5
55
100
AcDbEntity
  8
Schrift
  6
ByLayer
 62
  256
370
   -1
100
AcDbCircle
 10
-0.005078000000000027
 20
0.436585
 40
0.294466
100
AcDbArc
 50
42.9039
 51
209.001
  0
LINE
  5
56
100
AcDbEntity
  8
Schrift
  6
ByLayer
 62
  256
370
   -1
100
AcDbLine
 10
-0.2626220000000001
 20
0.293825
 11
0.2626219999999999
 21
-0.293825
  0
LINE
  5
57
100
AcDbEntity
  8
Schrift
  6
ByLayer
 62
  256
370
   -1
100
AcDbLine
 10
0.03044794341098722
 20
0.4251865271170314
 11
0.4344711377067976
 21
-0.02684001698044103
  0
ARC
  5
58
100
AcDbEntity
  8
Schrift
  6
ByLayer
 62
  256
370
   -1
100
AcDbCircle
 10
0.005078724987878092
 20
-0.4365894446353171
 40
0.294466
100
AcDbArc
 50
222.9039
 51
29.00099999999999
  0
LINE
  5
59
100
AcDbEntity
  8
Schrift
  6
ByLayer
 62
  256
370
   -1
100
AcDbLine
 10
-0.4259269210323067
 20
0.01727426394225029
 11
-0.02190094931932918
 21
-0.4347497976729233
  0
LINE
  5
5A
100
AcDbEntity
  8
Schrift
  6
ByLayer
 62
  256
370
   -1
100
AcDbLine
 10
-0.232461409669926
 20
-0.1991748565380687
 11
0.2324595405588943
 21
0.1991732550682932
  0
ENDBLK
  5
54
330
52
100
AcDbEntity
  8
0
100
AcDbBlockEnd
  0
ENDSEC
  0
SECTION
  2
ENTITIES
  0
IMAGE
  5
5D
100
AcDbEntity
  8
Foto
  6
ByLayer
 62
  256
370
   -1
100
AcDbRasterImage
 10
-19.5495
 20
-19.5102
 30
0
 11
0.0307692050209205
 21
0
 31
0
 12
1.884070422058948e-18
 22
0.0307692050209205
 32
0
 13
1300
 23
1195
340
5B
 70
    1
280
    0
281
   50
282
   50
283
    0
360
5C
  0
CIRCLE
  5
5E
100
AcDbEntity
  8
0
  6
ByLayer
 62
  256
370
   -1
100
AcDbCircle
 10
0
 20
0
 40
13.92838827718412
  0
CIRCLE
  5
5F
100
AcDbEntity
  8
0
  6
ByLayer
 62
  256
370
   -1
100
AcDbCircle
 10
0
 20
8
 40
1.75
  0
CIRCLE
  5
60
100
AcDbEntity
  8
Geometrie
  6
ByLayer
 62
  256
370
   -1
100
AcDbCircle
 10
0
 20
8
 40
15
  0
CIRCLE
  5
61
100
AcDbEntity
  8
Geometrie
  6
ByLayer
 62
  256
370
   -1
100
AcDbCircle
 10
0
 20
8
 40
14
  0
CIRCLE
  5
62
100
AcDbEntity
  8
Geometrie
  6
ByLayer
 62
  256
370
   -1
100
AcDbCircle
 10
0
 20
8
 40
16
  0
LINE
  5
63
100
AcDbEntity
  8
Geometrie
  6
ByLayer
 62
  256
370
   -1
100
AcDbLine
 10
0
 20
8
 11
17.65685424949238
 21
-9.656854249492383
  0
LINE
  5
64
100
AcDbEntity
  8
Geometrie
  6
ByLayer
 62
  256
370
   -1
100
AcDbLine
 10
-9.899494936611667
 20
-1.899494936611667
 11
-14.82842712474619
 21
-6.82842712474619
  0
LINE
  5
65
100
AcDbEntity
  8
Skala 10
  6
ByLayer
 62
  256
370
   -1
100
AcDbLine
 10
-11.31370849898476
 20
-3.313708498984759
 11
-9.899494936611667
 21
-1.899494936611667
  0
LINE
  5
66
100
AcDbEntity
  8
Skala 10
  6
ByLayer
 62
  256
370
   -1
100
AcDbLine
 10
-8.000000000000002
 20
-5.856406460551019
 11
-7.000000000000002
 21
-4.124355652982142
  0
LINE
  5
67
100
AcDbEntity
  8
Skala 10
  6
ByLayer
 62
  256
370
   -1
100
AcDbLine
 10
-4.141104721640334
 20
-7.454813220625092
 11
-3.623466631435292
 21
-5.522961568046956
  0
LINE
  5
68
100
AcDbEntity
  8
Skala 10
  6
ByLayer
 62
  256
370
   -1
100
AcDbLine
 10
-1.010643099614861e-15
 20
-8.000000000000002
 11
-8.881784197001252e-16
 21
-6.000000000000001
  0
LINE
  5
69
100
AcDbEntity
  8
Skala 10
  6
ByLayer
 62
  256
370
   -1
100
AcDbLine
 10
4.141104721640329
 20
-7.454813220625093
 11
3.623466631435289
 21
-5.522961568046957
  0
LINE
  5
6A
100
AcDbEntity
  8
Skala 10
  6
ByLayer
 62
  256
370
   -1
100
AcDbLine
 10
7.999999999999996
 20
-5.856406460551023
 11
6.999999999999997
 21
-4.124355652982143
  0
LINE
  5
6B
100
AcDbEntity
  8
Skala 10
  6
ByLayer
 62
  256
370
   -1
100
AcDbLine
 10
11.31370849898476
 20
-3.31370849898476
 11
9.899494936611664
 21
-1.899494936611665
  0
LINE
  5
6C
100
AcDbEntity
  8
Skala 1
  6
ByLayer
 62
  256
370
   -1
100
AcDbLine
 10
-10.03695909538287
 20
-3.147172382160912
 11
-9.367828489024014
 21
-2.40402755668352
  0
LINE
  5
6D
100
AcDbEntity
  8
Skala 1
  6
ByLayer
 62
  256
370
   -1
100
AcDbLine
 10
-9.439805865747564
 20
-3.657189421854559
 11
-8.810485474697726
 21
-2.880043460397591
  0
LINE
  5
6E
100
AcDbEntity
  8
Skala 1
  6
ByLayer
 62
  256
370
   -1
100
AcDbLine
 10
-8.816778784387097
 20
-4.135254915624208
 11
-8.228993532094623
 21
-3.326237921249263
  0
LINE
  5
6F
100
AcDbEntity
  8
Skala 1
  6
ByLayer
 62
  256
370
   -1
100
AcDbLine
 10
-8.169585525225409
 20
-4.580058519181358
 11
-7.624946490210382
 21
-3.741387951235935
  0
LINE
  5
70
100
AcDbEntity
  8
Skala 1
  6
ByLayer
 62
  256
370
   -1
100
AcDbLine
 10
-6.809857496093201
 20
-5.365097862825517
 11
-6.355866996353654
 21
-4.474091338637149
  0
LINE
  5
71
100
AcDbEntity
  8
Skala 1
  6
ByLayer
 62
  256
370
   -1
100
AcDbLine
 10
-6.101049646137003
 20
-5.703181864639011
 11
-5.694313003061203
 21
-4.789636406996412
  0
LINE
  5
72
100
AcDbEntity
  8
Skala 1
  6
ByLayer
 62
  256
370
   -1
100
AcDbLine
 10
-5.375519243179504
 20
-6.003706397458026
 11
-5.017151293634203
 21
-5.070125970960825
  0
LINE
  5
73
100
AcDbEntity
  8
Skala 1
  6
ByLayer
 62
  256
370
   -1
100
AcDbLine
 10
-4.635254915624211
 20
-6.265847744427303
 11
-4.326237921249263
 21
-5.314791228132151
  0
LINE
  5
74
100
AcDbEntity
  8
Skala 1
  6
ByLayer
 62
  256
370
   -1
100
AcDbLine
 10
-3.118675362266391
 20
-6.672214011007084
 11
-2.910763671448632
 21
-5.69406641027328
  0
LINE
  5
75
100
AcDbEntity
  8
Skala 1
  6
ByLayer
 62
  256
370
   -1
100
AcDbLine
 10
-2.346516975603468
 20
-6.815325108927064
 11
-2.190082510563236
 21
-5.827636768331927
  0
LINE
  5
76
100
AcDbEntity
  8
Skala 1
  6
ByLayer
 62
  256
370
   -1
100
AcDbLine
 10
-1.567926949014804
 20
-6.917828430524098
 11
-1.46339848574715
 21
-5.923306535155827
  0
LINE
  5
77
100
AcDbEntity
  8
Skala 1
  6
ByLayer
 62
  256
370
   -1
100
AcDbLine
 10
-0.7850393436441627
 20
-6.979443021318608
 11
-0.7327033874012174
 21
-5.980813486564035
  0
LINE
  5
78
100
AcDbEntity
  8
Skala 1
  6
ByLayer
 62
  256
370
   -1
100
AcDbLine
 10
0.7850393436441558
 20
-6.979443021318608
 11
0.7327033874012123
 21
-5.980813486564036
  0
LINE
  5
79
100
AcDbEntity
  8
Skala 1
  6
ByLayer
 62
  256
370
   -1
100
AcDbLine
 10
1.5679269490148
 20
-6.917828430524098
 11
1.463398485747147
 21
-5.923306535155827
  0
LINE
  5
7A
100
AcDbEntity
  8
Skala 1
  6
ByLayer
 62
  256
370
   -1
100
AcDbLine
 10
2.346516975603462
 20
-6.815325108927067
 11
2.190082510563232
 21
-5.827636768331929
  0
LINE
  5
7B
100
AcDbEntity
  8
Skala 1
  6
ByLayer
 62
  256
370
   -1
100
AcDbLine
 10
3.118675362266388
 20
-6.672214011007084
 11
2.910763671448629
 21
-5.694066410273279
  0
LINE
  5
7C
100
AcDbEntity
  8
Skala 1
  6
ByLayer
 62
  256
370
   -1
100
AcDbLine
 10
4.635254915624207
 20
-6.265847744427303
 11
4.326237921249262
 21
-5.31479122813215
  0
LINE
  5
7D
100
AcDbEntity
  8
Skala 1
  6
ByLayer
 62
  256
370
   -1
100
AcDbLine
 10
5.375519243179496
 20
-6.003706397458028
 11
5.017151293634198
 21
-5.070125970960827
  0
LINE
  5
7E
100
AcDbEntity
  8
Skala 1
  6
ByLayer
 62
  256
370
   -1
100
AcDbLine
 10
6.101049646137001
 20
-5.703181864639012
 11
5.694313003061201
 21
-4.789636406996412
  0
LINE
  5
7F
100
AcDbEntity
  8
Skala 1
  6
ByLayer
 62
  256
370
   -1
100
AcDbLine
 10
6.809857496093197
 20
-5.365097862825518
 11
6.355866996353652
 21
-4.474091338637151
  0
LINE
  5
80
100
AcDbEntity
  8
Skala 1
  6
ByLayer
 62
  256
370
   -1
100
AcDbLine
 10
8.169585525225406
 20
-4.580058519181359
 11
7.624946490210379
 21
-3.741387951235936
  0
LINE
  5
81
100
AcDbEntity
  8
Skala 1
  6
ByLayer
 62
  256
370
   -1
100
AcDbLine
 10
8.81677878438709
 20
-4.135254915624214
 11
8.22899353209462
 21
-3.326237921249267
  0
LINE
  5
82
100
AcDbEntity
  8
Skala 1
  6
ByLayer
 62
  256
370
   -1
100
AcDbLine
 10
9.439805865747562
 20
-3.657189421854564
 11
8.810485474697725
 21
-2.880043460397592
  0
LINE
  5
83
100
AcDbEntity
  8
Skala 1
  6
ByLayer
 62
  256
370
   -1
100
AcDbLine
 10
10.03695909538287
 20
-3.147172382160915
 11
9.367828489024015
 21
-2.40402755668352
  0
ARC
  5
84
100
AcDbEntity
  8
Skala 1
  6
ByLayer
 62
  256
370
   -1
100
AcDbCircle
 10
0
 20
8
 40
14
100
AcDbArc
 50
225
 51
315
  0
ARC
  5
85
100
AcDbEntity
  8
Skala 1
  6
ByLayer
 62
  256
370
   -1
100
AcDbCircle
 10
0
 20
8
 40
15
100
AcDbArc
 50
225
 51
315
  0
ARC
  5
86
100
AcDbEntity
  8
Skala 1
  6
ByLayer
 62
  256
370
   -1
100
AcDbCircle
 10
0
 20
8
 40
16
100
AcDbArc
 50
225
 51
315
  0
CIRCLE
  5
87
100
AcDbEntity
  8
0
  6
ByLayer
 62
  256
370
   -1
100
AcDbCircle
 10
30
 20
0.2320658007348881
 40
13.92838827718412
  0
CIRCLE
  5
88
100
AcDbEntity
  8
0
  6
ByLayer
 62
  256
370
   -1
100
AcDbCircle
 10
30
 20
8.23206580073489
 40
1.75
  0
LINE
  5
89
100
AcDbEntity
  8
Skala 10
  6
ByLayer
 62
  256
370
   -1
100
AcDbLine
 10
18.68629150101524
 20
-3.081642698249871
 11
20.10050506338833
 21
-1.667429135876779
  0
ARC
  5
8A
100
AcDbEntity
  8
Skala 1
  6
ByLayer
 62
  256
370
   -1
100
AcDbCircle
 10
30
 20
8.23206580073489
 40
14
100
AcDbArc
 50
225
 51
315
  0
ARC
  5
8B
100
AcDbEntity
  8
Skala 1
  6
ByLayer
 62
  256
370
   -1
100
AcDbCircle
 10
30
 20
8.23206580073489
 40
15
100
AcDbArc
 50
225
 51
315
  0
ARC
  5
8C
100
AcDbEntity
  8
Skala 1
  6
ByLayer
 62
  256
370
   -1
100
AcDbCircle
 10
30
 20
8.23206580073489
 40
16
100
AcDbArc
 50
225
 51
315
  0
LINE
  5
8D
100
AcDbEntity
  8
Skala 10
  6
ByLayer
 62
  256
370
   -1
100
AcDbLine
 10
20.25981713586047
 20
-4.461587643924872
 11
21.47733999387791
 21
-2.874880963342406
  0
LINE
  5
8E
100
AcDbEntity
  8
Skala 1
  6
ByLayer
 62
  256
370
   -1
100
AcDbLine
 10
19.6746813645937
 20
-2.648549764449426
 11
20.36303594028745
 21
-1.923175393437139
  0
LINE
  5
8F
100
AcDbEntity
  8
Skala 1
  6
ByLayer
 62
  256
370
   -1
100
AcDbLine
 10
19.96304090461713
 20
-2.915106581426024
 11
20.63217151097599
 21
-2.171961755948631
  0
LINE
  5
90
100
AcDbEntity
  8
Skala 1
  6
ByLayer
 62
  256
370
   -1
100
AcDbLine
 10
20.25827927504725
 20
-3.174023683265574
 11
20.90772732337743
 21
-2.413617717665545
  0
LINE
  5
91
100
AcDbEntity
  8
Skala 1
  6
ByLayer
 62
  256
370
   -1
100
AcDbLine
 10
20.56019413425244
 20
-3.425123621119674
 11
21.18951452530228
 21
-2.647977659662704
  0
LINE
  5
92
100
AcDbEntity
  8
Skala 10
  6
ByLayer
 62
  256
370
   -1
100
AcDbLine
 10
22
 20
-5.624340659816127
 11
23
 21
-3.892289852247254
  0
LINE
  5
93
100
AcDbEntity
  8
Skala 1
  6
ByLayer
 62
  256
370
   -1
100
AcDbLine
 10
21.18322121561291
 20
-3.903189114889321
 11
21.77100646790538
 21
-3.094172120514376
  0
LINE
  5
94
100
AcDbEntity
  8
Skala 1
  6
ByLayer
 62
  256
370
   -1
100
AcDbLine
 10
21.50390644612751
 20
-4.129827028595344
 11
22.07031268305234
 21
-3.30570083997333
  0
LINE
  5
95
100
AcDbEntity
  8
Skala 1
  6
ByLayer
 62
  256
370
   -1
100
AcDbLine
 10
21.8304144747746
 20
-4.347992718446468
 11
22.37505350978962
 21
-3.509322150501049
  0
LINE
  5
96
100
AcDbEntity
  8
Skala 1
  6
ByLayer
 62
  256
370
   -1
100
AcDbLine
 10
22.16252152926077
 20
-4.557536664576492
 11
22.68502009397672
 21
-3.704896500222402
  0
LINE
  5
97
100
AcDbEntity
  8
Skala 10
  6
ByLayer
 62
  256
370
   -1
100
AcDbLine
 10
23.87706508215857
 20
-6.550006719445697
 11
24.64243194688874
 21
-4.702247654423129
  0
LINE
  5
98
100
AcDbEntity
  8
Skala 1
  6
ByLayer
 62
  256
370
   -1
100
AcDbLine
 10
22.84261859610588
 20
-4.950190889194591
 11
23.31977735636548
 21
-4.071373776532626
  0
LINE
  5
99
100
AcDbEntity
  8
Skala 1
  6
ByLayer
 62
  256
370
   -1
100
AcDbLine
 10
23.1901425039068
 20
-5.133032062090628
 11
23.64413300364635
 21
-4.242025537902261
  0
LINE
  5
9A
100
AcDbEntity
  8
Skala 1
  6
ByLayer
 62
  256
370
   -1
100
AcDbLine
 10
23.54233354787558
 20
-5.306713464513017
 11
23.97284464468387
 21
-4.404128180163161
  0
LINE
  5
9B
100
AcDbEntity
  8
Skala 1
  6
ByLayer
 62
  256
370
   -1
100
AcDbLine
 10
23.898950353863
 20
-5.471116063904123
 11
24.3056869969388
 21
-4.557570606261525
  0
LINE
  5
9C
100
AcDbEntity
  8
Skala 10
  6
ByLayer
 62
  256
370
   -1
100
AcDbLine
 10
25.85889527835967
 20
-7.222747419890201
 11
26.37653336856471
 21
-5.290895767312071
  0
LINE
  5
9D
100
AcDbEntity
  8
Skala 1
  6
ByLayer
 62
  256
370
   -1
100
AcDbLine
 10
24.6244807568205
 20
-5.771640596723135
 11
24.9828487063658
 21
-4.838060170225935
  0
LINE
  5
9E
100
AcDbEntity
  8
Skala 1
  6
ByLayer
 62
  256
370
   -1
100
AcDbLine
 10
24.99289711149344
 20
-5.907556565647784
 11
25.32670397072721
 21
-4.964915074555609
  0
LINE
  5
9F
100
AcDbEntity
  8
Skala 1
  6
ByLayer
 62
  256
370
   -1
100
AcDbLine
 10
25.36474508437579
 20
-6.033781943692411
 11
25.67376207875073
 21
-5.082725427397261
  0
LINE
  5
A0
100
AcDbEntity
  8
Skala 1
  6
ByLayer
 62
  256
370
   -1
100
AcDbLine
 10
25.73976982944117
 20
-6.150230222288005
 11
26.02378517414509
 21
-5.191410487419812
  0
LINE
  5
A1
100
AcDbEntity
  8
Skala 10
  6
ByLayer
 62
  256
370
   -1
100
AcDbLine
 10
27.91158092447917
 20
-7.631051981246074
 11
28.17263330891927
 21
-5.648162258498459
  0
LINE
  5
A2
100
AcDbEntity
  8
Skala 1
  6
ByLayer
 62
  256
370
   -1
100
AcDbLine
 10
26.49831954216142
 20
-6.353483005230256
 11
26.73176490601733
 21
-5.381113084832585
  0
LINE
  5
A3
100
AcDbEntity
  8
Skala 1
  6
ByLayer
 62
  256
370
   -1
100
AcDbLine
 10
26.88132463773361
 20
-6.440148210272191
 11
27.08923632855137
 21
-5.462000609538389
  0
LINE
  5
A4
100
AcDbEntity
  8
Skala 1
  6
ByLayer
 62
  256
370
   -1
100
AcDbLine
 10
27.26646711761779
 20
-6.516757812724425
 11
27.44870264310993
 21
-5.533502905160475
  0
LINE
  5
A5
100
AcDbEntity
  8
Skala 1
  6
ByLayer
 62
  256
370
   -1
100
AcDbLine
 10
27.65348302439654
 20
-6.583259308192176
 11
27.80991748943677
 21
-5.595570967597038
  0
LINE
  5
A6
100
AcDbEntity
  8
Skala 10
  6
ByLayer
 62
  256
370
   -1
100
AcDbLine
 10
30
 20
-7.76793419926511
 11
30
 21
-5.767934199265115
  0
LINE
  5
A7
100
AcDbEntity
  8
Skala 1
  6
ByLayer
 62
  256
370
   -1
100
AcDbLine
 10
28.4320730509852
 20
-6.685762629789208
 11
28.53660151425285
 21
-5.691240734420939
  0
LINE
  5
A8
100
AcDbEntity
  8
Skala 1
  6
ByLayer
 62
  256
370
   -1
100
AcDbLine
 10
28.82311356408233
 20
-6.721694205262029
 11
28.90157265981017
 21
-5.724776871528903
  0
LINE
  5
A9
100
AcDbEntity
  8
Skala 1
  6
ByLayer
 62
  256
370
   -1
100
AcDbLine
 10
29.21496065635584
 20
-6.747377220583715
 11
29.26729661259878
 21
-5.748747685829148
  0
LINE
  5
AA
100
AcDbEntity
  8
Skala 1
  6
ByLayer
 62
  256
370
   -1
100
AcDbLine
 10
29.6073457753819
 20
-6.762794073898469
 11
29.63352272368978
 21
-5.763136748922914
  0
LINE
  5
AB
100
AcDbEntity
  8
Skala 10
  6
ByLayer
 62
  256
370
   -1
100
AcDbLine
 10
32.08841907552083
 20
-7.631051981246076
 11
31.82736669108072
 21
-5.648162258498461
  0
LINE
  5
AC
100
AcDbEntity
  8
Skala 1
  6
ByLayer
 62
  256
370
   -1
100
AcDbLine
 10
30.3926542246181
 20
-6.762794073898467
 11
30.36647727631022
 21
-5.763136748922912
  0
LINE
  5
AD
100
AcDbEntity
  8
Skala 1
  6
ByLayer
 62
  256
370
   -1
100
AcDbLine
 10
30.78503934364416
 20
-6.747377220583715
 11
30.73270338740121
 21
-5.748747685829144
  0
LINE
  5
AE
100
AcDbEntity
  8
Skala 1
  6
ByLayer
 62
  256
370
   -1
100
AcDbLine
 10
31.17688643591767
 20
-6.721694205262025
 11
31.09842734018983
 21
-5.724776871528903
  0
LINE
  5
AF
100
AcDbEntity
  8
Skala 1
  6
ByLayer
 62
  256
370
   -1
100
AcDbLine
 10
31.5679269490148
 20
-6.68576262978921
 11
31.46339848574715
 21
-5.691240734420937
  0
LINE
  5
B0
100
AcDbEntity
  8
Skala 10
  6
ByLayer
 62
  256
370
   -1
100
AcDbLine
 10
34.14110472164033
 20
-7.222747419890201
 11
33.62346663143529
 21
-5.290895767312072
  0
LINE
  5
B1
100
AcDbEntity
  8
Skala 1
  6
ByLayer
 62
  256
370
   -1
100
AcDbLine
 10
32.34651697560346
 20
-6.583259308192174
 11
32.19008251056323
 21
-5.595570967597039
  0
LINE
  5
B2
100
AcDbEntity
  8
Skala 1
  6
ByLayer
 62
  256
370
   -1
100
AcDbLine
 10
32.73353288238221
 20
-6.516757812724427
 11
32.55129735689006
 21
-5.533502905160475
  0
LINE
  5
B3
100
AcDbEntity
  8
Skala 1
  6
ByLayer
 62
  256
370
   -1
100
AcDbLine
 10
33.11867536226639
 20
-6.440148210272191
 11
32.91076367144863
 21
-5.462000609538391
  0
LINE
  5
B4
100
AcDbEntity
  8
Skala 1
  6
ByLayer
 62
  256
370
   -1
100
AcDbLine
 10
33.50168045783858
 20
-6.35348300523026
 11
33.26823509398267
 21
-5.381113084832583
  0
LINE
  5
B5
100
AcDbEntity
  8
Skala 10
  6
ByLayer
 62
  256
370
   -1
100
AcDbLine
 10
36.12293491784143
 20
-6.550006719445697
 11
35.35756805311125
 21
-4.702247654423131
  0
LINE
  5
B6
100
AcDbEntity
  8
Skala 1
  6
ByLayer
 62
  256
370
   -1
100
AcDbLine
 10
34.26023017055884
 20
-6.150230222288004
 11
33.97621482585492
 21
-5.191410487419814
  0
LINE
  5
B7
100
AcDbEntity
  8
Skala 1
  6
ByLayer
 62
  256
370
   -1
100
AcDbLine
 10
34.63525491562421
 20
-6.033781943692411
 11
34.32623792124926
 21
-5.082725427397262
  0
LINE
  5
B8
100
AcDbEntity
  8
Skala 1
  6
ByLayer
 62
  256
370
   -1
100
AcDbLine
 10
35.00710288850657
 20
-5.907556565647784
 11
34.67329602927279
 21
-4.964915074555609
  0
LINE
  5
B9
100
AcDbEntity
  8
Skala 1
  6
ByLayer
 62
  256
370
   -1
100
AcDbLine
 10
35.3755192431795
 20
-5.771640596723135
 11
35.0171512936342
 21
-4.838060170225933
  0
LINE
  5
BA
100
AcDbEntity
  8
Skala 10
  6
ByLayer
 62
  256
370
   -1
100
AcDbLine
 10
38
 20
-5.624340659816129
 11
37
 21
-3.892289852247258
  0
LINE
  5
BB
100
AcDbEntity
  8
Skala 1
  6
ByLayer
 62
  256
370
   -1
100
AcDbLine
 10
36.101049646137
 20
-5.471116063904121
 11
35.6943130030612
 21
-4.557570606261523
  0
LINE
  5
BC
100
AcDbEntity
  8
Skala 1
  6
ByLayer
 62
  256
370
   -1
100
AcDbLine
 10
36.45766645212443
 20
-5.306713464513019
 11
36.02715535531613
 21
-4.404128180163159
  0
LINE
  5
BD
100
AcDbEntity
  8
Skala 1
  6
ByLayer
 62
  256
370
   -1
100
AcDbLine
 10
36.8098574960932
 20
-5.133032062090626
 11
36.35586699635365
 21
-4.242025537902265
  0
LINE
  5
BE
100
AcDbEntity
  8
Skala 1
  6
ByLayer
 62
  256
370
   -1
100
AcDbLine
 10
37.15738140389412
 20
-4.950190889194591
 11
36.68022264363452
 21
-4.071373776532624
  0
LINE
  5
BF
100
AcDbEntity
  8
Skala 10
  6
ByLayer
 62
  256
370
   -1
100
AcDbLine
 10
39.74018286413953
 20
-4.461587643924872
 11
38.52266000612209
 21
-2.87488096334241
  0
LINE
  5
C0
100
AcDbEntity
  8
Skala 1
  6
ByLayer
 62
  256
370
   -1
100
AcDbLine
 10
37.83747847073923
 20
-4.557536664576492
 11
37.31497990602328
 21
-3.704896500222404
  0
LINE
  5
C1
100
AcDbEntity
  8
Skala 1
  6
ByLayer
 62
  256
370
   -1
100
AcDbLine
 10
38.1695855252254
 20
-4.347992718446472
 11
37.62494649021038
 21
-3.509322150501049
  0
LINE
  5
C2
100
AcDbEntity
  8
Skala 1
  6
ByLayer
 62
  256
370
   -1
100
AcDbLine
 10
38.49609355387248
 20
-4.129827028595344
 11
37.92968731694766
 21
-3.305700839973333
  0
LINE
  5
C3
100
AcDbEntity
  8
Skala 1
  6
ByLayer
 62
  256
370
   -1
100
AcDbLine
 10
38.8167787843871
 20
-3.903189114889322
 11
38.22899353209462
 21
-3.094172120514376
  0
LINE
  5
C4
100
AcDbEntity
  8
Skala 10
  6
ByLayer
 62
  256
370
   -1
100
AcDbLine
 10
41.31370849898475
 20
-3.081642698249871
 11
39.89949493661166
 21
-1.667429135876782
  0
LINE
  5
C5
100
AcDbEntity
  8
Skala 1
  6
ByLayer
 62
  256
370
   -1
100
AcDbLine
 10
39.43980586574756
 20
-3.425123621119672
 11
38.81048547469772
 21
-2.647977659662704
  0
LINE
  5
C6
100
AcDbEntity
  8
Skala 1
  6
ByLayer
 62
  256
370
   -1
100
AcDbLine
 10
39.74172072495275
 20
-3.174023683265574
 11
39.09227267662257
 21
-2.413617717665545
  0
LINE
  5
C7
100
AcDbEntity
  8
Skala 1
  6
ByLayer
 62
  256
370
   -1
100
AcDbLine
 10
40.03695909538287
 20
-2.915106581426022
 11
39.36782848902401
 21
-2.171961755948633
  0
LINE
  5
C8
100
AcDbEntity
  8
Skala 1
  6
ByLayer
 62
  256
370
   -1
100
AcDbLine
 10
40.3253186354063
 20
-2.648549764449426
 11
39.63696405971255
 21
-1.923175393437138
  0
INSERT
  5
C9
100
AcDbEntity
  8
Schrift
  6
ByLayer
 62
  256
370
   -1
100
AcDbBlockReference
  2
SH
 10
30.00000140183328
 20
-2.999998798897669
 30
0
 41
1.5
 42
1.5
 43
0
 50
0
 70
    1
 71
    1
 44
0
 45
0
  0
INSERT
  5
CA
100
AcDbEntity
  8
Schrift
  6
ByLayer
 62
  256
370
   -1
100
AcDbBlockReference
  2
SH
 10
1.401833280567644e-06
 20
-2.999998798897669
 30
0
 41
1.5
 42
1.5
 43
0
 50
0
 70
    1
 71
    1
 44
0
 45
0
  0
ENDSEC
  0
SECTION
  2
OBJECTS
  0
DICTIONARY
  5
C
330
0
100
AcDbDictionary
281
    1
  3
ACAD_GROUP
350
D
  3
ACAD_IMAGE_DICT
350
CB
  0
DICTIONARY
  5
D
330
C
100
AcDbDictionary
281
    1
  0
IMAGEDEF_REACTOR
  5
5C
330
5D
100
AcDbRasterImageDefReactor
 90
    2
330
5D
  0
DICTIONARY
  5
CB
330
C
100
AcDbDictionary
281
    1
  3
RFP46G
350
5B
  0
IMAGEDEF
  5
5B
102
{ACAD_REACTORS
330
5C
102
}
100
AcDbRasterImageDef
 90
    0
  1
/home/tom/ownCloud/Technik/Projekte/Gartenbahn/Gartenbahn Steuerung/RFP46G.jpg
 10
1300
 20
1195
 11
1
 21
1
280
    1
281
    0
  0
ENDSEC
  0
EOF
