<?xml version="1.0" encoding="UTF-8"?>
<svg viewBox="0 0 595.276 420.945" xmlns:inkscape="http://www.inkscape.org/namespaces/inkscape" height="420.945pt" version="1.1" xmlns:xlink="http://www.w3.org/1999/xlink" xmlns="http://www.w3.org/2000/svg" width="595.276pt">
 <defs>
  <clipPath id="Clip0">
   <path d="M0 0 L479.156 0 L479.156 267.548 L0 267.548 L0 0 Z"/>
  </clipPath>
  <clipPath id="Clip1">
   <path d="M0 0 L282.332 0 L282.332 267.548 L0 267.548 L0 0 Z"/>
  </clipPath>
  <path d="M4.11625 9.63375 C4.11625 9.69885 4.11297 9.75339 4.10641 9.79734 C4.09995 9.8413 4.08938 9.87875 4.07469 9.90969 C4.0601 9.94063 4.04219 9.96344 4.02094 9.97813 C3.99979 9.99271 3.97458 10 3.94531 10 L1.15234 10 C1.07745 10 1.00661 9.97479 0.939844 9.92437 C0.873177 9.87385 0.839844 9.7851 0.839844 9.65813 L0.839844 3.80859 C0.839844 3.78255 0.846354 3.75979 0.859375 3.74031 C0.872396 3.72073 0.895156 3.70526 0.927656 3.69391 C0.96026 3.68245 1.00422 3.67266 1.05953 3.66453 C1.11495 3.65641 1.18172 3.65234 1.25984 3.65234 C1.3412 3.65234 1.4087 3.65641 1.46234 3.66453 C1.51609 3.67266 1.55922 3.68245 1.59172 3.69391 C1.62432 3.70526 1.64714 3.72073 1.66016 3.74031 C1.67318 3.75979 1.67969 3.78255 1.67969 3.80859 L1.67969 9.2725 L3.94531 9.2725 C3.97458 9.2725 3.99979 9.27984 4.02094 9.29453 C4.04219 9.30911 4.0601 9.33026 4.07469 9.35797 C4.08938 9.38557 4.09995 9.42219 4.10641 9.46781 C4.11297 9.51333 4.11625 9.56865 4.11625 9.63375 Z" id="GlCalibri62"/>
  <path d="M4.83406 7.63187 C4.83406 7.9899 4.78682 8.31948 4.69234 8.62063 C4.59797 8.92167 4.45719 9.18125 4.27 9.39937 C4.08281 9.6175 3.84844 9.7876 3.56688 9.90969 C3.28531 10.0318 2.95901 10.0928 2.58797 10.0928 C2.22661 10.0928 1.91167 10.0391 1.64312 9.93172 C1.37458 9.82422 1.15078 9.66797 0.971719 9.46297 C0.792656 9.25786 0.659167 9.00885 0.57125 8.71594 C0.483438 8.42292 0.439531 8.09083 0.439531 7.71969 C0.439531 7.36167 0.485885 7.03208 0.578594 6.73094 C0.671406 6.42979 0.811406 6.17021 0.998594 5.95219 C1.18578 5.73406 1.41932 5.56479 1.69922 5.44437 C1.97922 5.32385 2.30635 5.26359 2.68063 5.26359 C3.04198 5.26359 3.35693 5.31734 3.62547 5.42484 C3.89401 5.53224 4.11781 5.68849 4.29688 5.89359 C4.47594 6.09859 4.61021 6.3476 4.69969 6.64063 C4.78927 6.93354 4.83406 7.26396 4.83406 7.63187 L4.83406 7.63187 Z M3.98438 7.68547 C3.98438 7.44786 3.9624 7.22328 3.91844 7.01172 C3.87448 6.80016 3.80203 6.61464 3.70109 6.45516 C3.60026 6.29557 3.46354 6.16943 3.29094 6.07672 C3.11844 5.98391 2.90365 5.9375 2.64656 5.9375 C2.40885 5.9375 2.20453 5.97984 2.03359 6.06453 C1.86276 6.14911 1.72198 6.26875 1.61125 6.42344 C1.50063 6.57802 1.41844 6.76109 1.36469 6.97266 C1.31104 7.18422 1.28422 7.41531 1.28422 7.66594 C1.28422 7.90687 1.3062 8.13312 1.35016 8.34469 C1.39411 8.55625 1.46734 8.74099 1.56984 8.89891 C1.67234 9.05682 1.80984 9.18219 1.98234 9.275 C2.15495 9.36771 2.36984 9.41406 2.62703 9.41406 C2.86141 9.41406 3.06484 9.37177 3.23734 9.28719 C3.40984 9.2025 3.55141 9.08365 3.66203 8.93062 C3.77276 8.7776 3.85417 8.59531 3.90625 8.38375 C3.95833 8.17219 3.98438 7.93943 3.98438 7.68547 Z" id="GlCalibri381"/>
  <path d="M3.90625 9.20891 C3.90625 9.26432 3.90464 9.3124 3.90141 9.35313 C3.89818 9.39375 3.89245 9.42792 3.88422 9.45562 C3.87609 9.48323 3.86635 9.5076 3.855 9.52875 C3.84365 9.5499 3.8176 9.58083 3.77687 9.62156 C3.73615 9.66229 3.66693 9.71276 3.56922 9.77297 C3.47161 9.83318 3.36177 9.88687 3.23969 9.93406 C3.11771 9.98125 2.9851 10.0195 2.84187 10.0488 C2.69865 10.0781 2.55052 10.0928 2.3975 10.0928 C2.08177 10.0928 1.80182 10.0407 1.55766 9.93656 C1.31349 9.8324 1.10922 9.68021 0.944844 9.48 C0.780469 9.27979 0.655156 9.03401 0.568906 8.74266 C0.482656 8.4513 0.439531 8.11521 0.439531 7.73438 C0.439531 7.30146 0.492396 6.92958 0.598125 6.61875 C0.703958 6.30781 0.848802 6.05307 1.03266 5.85453 C1.21661 5.65589 1.43307 5.50859 1.68203 5.41266 C1.93109 5.31661 2.20052 5.26859 2.49031 5.26859 C2.63021 5.26859 2.76609 5.28161 2.89797 5.30766 C3.02984 5.3337 3.15109 5.36786 3.26172 5.41016 C3.37245 5.45245 3.47094 5.5013 3.55719 5.55672 C3.64344 5.61203 3.70609 5.65922 3.74516 5.69828 C3.78422 5.73734 3.81104 5.76828 3.82563 5.79109 C3.84031 5.8138 3.85255 5.84063 3.86234 5.87156 C3.87214 5.9025 3.87865 5.9375 3.88187 5.97656 C3.8851 6.01563 3.88672 6.06443 3.88672 6.12297 C3.88672 6.24995 3.87208 6.3387 3.84281 6.38922 C3.81354 6.43964 3.77771 6.46484 3.73531 6.46484 C3.68656 6.46484 3.63042 6.43802 3.56688 6.38438 C3.50344 6.33062 3.42286 6.2712 3.32516 6.20609 C3.22755 6.14099 3.10958 6.08156 2.97125 6.02781 C2.83292 5.97406 2.66932 5.94719 2.48047 5.94719 C2.09307 5.94719 1.79604 6.09615 1.58937 6.39406 C1.38271 6.69187 1.27937 7.12401 1.27937 7.69047 C1.27937 7.97359 1.3062 8.22177 1.35984 8.435 C1.41359 8.64823 1.49255 8.82646 1.59672 8.96969 C1.70089 9.11292 1.82865 9.21953 1.98 9.28953 C2.13135 9.35953 2.30469 9.39453 2.5 9.39453 C2.68552 9.39453 2.84828 9.36526 2.98828 9.30672 C3.12828 9.24807 3.24953 9.18375 3.35203 9.11375 C3.45464 9.04375 3.54089 8.98026 3.61078 8.92328 C3.68078 8.8663 3.73531 8.83781 3.77438 8.83781 C3.79719 8.83781 3.81672 8.84432 3.83297 8.85734 C3.84932 8.87036 3.86318 8.89234 3.87453 8.92328 C3.88589 8.95422 3.89401 8.99328 3.89891 9.04047 C3.9038 9.08766 3.90625 9.1438 3.90625 9.20891 Z" id="GlCalibri272"/>
  <path d="M5.05859 9.04297 C5.05859 9.12432 5.05615 9.19349 5.05125 9.25047 C5.04635 9.30745 5.03901 9.3563 5.02922 9.39703 C5.01953 9.43766 5.00651 9.47266 4.99016 9.50203 C4.97391 9.5313 4.94786 9.56464 4.91203 9.60203 C4.8763 9.63943 4.80714 9.68745 4.70453 9.74609 C4.60203 9.80464 4.47672 9.86078 4.32859 9.91453 C4.18047 9.96828 4.0112 10.013 3.82078 10.0488 C3.63036 10.0846 3.42448 10.1025 3.20313 10.1025 C2.77021 10.1025 2.37958 10.0358 2.03125 9.90234 C1.68292 9.76891 1.38667 9.56953 1.1425 9.30422 C0.898438 9.03891 0.711302 8.70771 0.581094 8.31062 C0.450885 7.91344 0.385781 7.45115 0.385781 6.92375 C0.385781 6.38667 0.457396 5.90979 0.600625 5.49313 C0.743854 5.07646 0.94401 4.72656 1.20109 4.44344 C1.45828 4.16021 1.76672 3.94536 2.12641 3.79891 C2.4862 3.65234 2.88255 3.57906 3.31547 3.57906 C3.4912 3.57906 3.66042 3.59375 3.82313 3.62312 C3.98594 3.6524 4.13651 3.69062 4.27484 3.73781 C4.41328 3.785 4.53781 3.83953 4.64844 3.90141 C4.75917 3.96318 4.83646 4.01604 4.88031 4.06 C4.92427 4.10396 4.95437 4.14063 4.97063 4.17 C4.98698 4.19927 5 4.23672 5.00969 4.28234 C5.01948 4.32786 5.02682 4.38156 5.03172 4.44344 C5.03661 4.50521 5.03906 4.58167 5.03906 4.67281 C5.03906 4.77052 5.03578 4.85354 5.02922 4.92188 C5.02276 4.99021 5.01141 5.04557 4.99516 5.08797 C4.97891 5.13026 4.95938 5.1612 4.93656 5.18078 C4.91375 5.20026 4.88771 5.21 4.85844 5.21 C4.80958 5.21 4.74771 5.18151 4.67281 5.12453 C4.59802 5.06755 4.5012 5.00406 4.38234 4.93406 C4.26349 4.86406 4.12188 4.80057 3.9575 4.74359 C3.79312 4.68661 3.59703 4.65813 3.36922 4.65813 C3.11849 4.65813 2.89464 4.70943 2.69766 4.81203 C2.50078 4.91453 2.33318 5.06099 2.19484 5.25141 C2.05651 5.44182 1.95151 5.67214 1.87984 5.94234 C1.80828 6.21255 1.7725 6.51693 1.7725 6.85547 C1.7725 7.22651 1.81073 7.54797 1.88719 7.81984 C1.96375 8.09161 2.07281 8.31542 2.21437 8.49125 C2.35594 8.66698 2.52682 8.79797 2.72703 8.88422 C2.92724 8.97047 3.15266 9.01359 3.40328 9.01359 C3.6312 9.01359 3.82813 8.98677 3.99406 8.93313 C4.1601 8.87937 4.30255 8.81995 4.42141 8.75484 C4.54026 8.68974 4.63792 8.63115 4.71438 8.57906 C4.79083 8.52698 4.85026 8.50094 4.89266 8.50094 C4.92516 8.50094 4.95115 8.50745 4.97063 8.52047 C4.99021 8.53349 5.00651 8.55953 5.01953 8.59859 C5.03255 8.63766 5.04229 8.69219 5.04875 8.76219 C5.05531 8.83219 5.05859 8.92578 5.05859 9.04297 Z" id="GlCalibri-Bold18"/>
  <path d="M5.86422 9.52141 C5.90328 9.63859 5.92771 9.73141 5.9375 9.79984 C5.94729 9.86818 5.93427 9.91943 5.89844 9.95359 C5.8626 9.98776 5.79911 10.0089 5.70797 10.017 C5.61682 10.0253 5.49151 10.0294 5.33203 10.0294 C5.16599 10.0294 5.03656 10.0269 4.94375 10.022 C4.85104 10.0171 4.78026 10.0073 4.73141 9.99266 C4.68266 9.97797 4.64849 9.9576 4.62891 9.93156 C4.60943 9.90552 4.59318 9.87135 4.58016 9.82906 L4.15531 8.55953 L1.78219 8.55953 L1.38187 9.79484 C1.36885 9.84047 1.35177 9.87875 1.33062 9.90969 C1.30948 9.94063 1.27526 9.96505 1.22797 9.98297 C1.18078 10.0009 1.11406 10.0131 1.02781 10.0195 C0.941562 10.0261 0.828438 10.0294 0.688438 10.0294 C0.53875 10.0294 0.421563 10.0245 0.336875 10.0147 C0.252292 10.0049 0.193698 9.9813 0.161094 9.94391 C0.128594 9.90641 0.117188 9.85349 0.126875 9.78516 C0.136667 9.71682 0.161094 9.62568 0.200156 9.51172 L2.14844 3.90625 C2.16802 3.85094 2.19083 3.8062 2.21687 3.77203 C2.24292 3.73776 2.28438 3.71172 2.34125 3.69391 C2.39823 3.67599 2.47719 3.66458 2.57813 3.65969 C2.67906 3.65479 2.81255 3.65234 2.97859 3.65234 C3.17057 3.65234 3.32354 3.65479 3.4375 3.65969 C3.55146 3.66458 3.64016 3.67599 3.70359 3.69391 C3.76714 3.71172 3.81271 3.73854 3.84031 3.77438 C3.86802 3.81021 3.89161 3.85906 3.91109 3.92094 L5.86422 9.52141 L5.86422 9.52141 Z M2.96391 4.88766 L2.95906 4.88766 L2.06547 7.57328 L3.8575 7.57328 L2.96391 4.88766 Z" id="GlCalibri-Bold4"/>
  <path d="M5.89844 9.55078 C5.89844 9.62568 5.88542 9.69245 5.85938 9.75109 C5.83333 9.80964 5.79833 9.85844 5.75438 9.8975 C5.71042 9.93656 5.65833 9.96505 5.59813 9.98297 C5.53792 10.0009 5.47687 10.0098 5.415 10.0098 L4.86813 10.0098 C4.75427 10.0098 4.65583 9.99844 4.57281 9.97563 C4.48979 9.95281 4.41328 9.9113 4.34328 9.85109 C4.27328 9.79089 4.20573 9.70953 4.14063 9.60703 C4.07552 9.50443 4.00229 9.37172 3.92094 9.20891 L2.34859 6.25484 C2.25745 6.07911 2.16469 5.88953 2.07031 5.68609 C1.97594 5.48255 1.8913 5.28479 1.81641 5.09281 L1.80672 5.09281 C1.81974 5.32719 1.82948 5.56073 1.83594 5.79344 C1.8425 6.02615 1.84578 6.2662 1.84578 6.51359 L1.84578 9.81938 C1.84578 9.85187 1.83682 9.88115 1.81891 9.90719 C1.80099 9.93323 1.77005 9.95521 1.72609 9.97312 C1.68214 9.99104 1.62271 10.0049 1.54781 10.0147 C1.47302 10.0245 1.37703 10.0294 1.25984 10.0294 C1.14589 10.0294 1.05146 10.0245 0.976563 10.0147 C0.901667 10.0049 0.843073 9.99104 0.800781 9.97312 C0.75849 9.95521 0.729167 9.93323 0.712812 9.90719 C0.696562 9.88115 0.688438 9.85187 0.688438 9.81938 L0.688438 4.14063 C0.688438 3.9876 0.733177 3.87286 0.822656 3.79641 C0.91224 3.71984 1.02214 3.68156 1.15234 3.68156 L1.84078 3.68156 C1.96453 3.68156 2.0687 3.69219 2.15328 3.71344 C2.23797 3.73458 2.31365 3.76958 2.38031 3.81844 C2.44708 3.86719 2.50974 3.93469 2.56828 4.02094 C2.62693 4.10719 2.68719 4.2138 2.74906 4.34078 L3.97953 6.65031 C4.05109 6.79031 4.12188 6.92786 4.19188 7.06297 C4.26187 7.19807 4.32943 7.33318 4.39453 7.46828 C4.45964 7.60339 4.52313 7.73604 4.585 7.86625 C4.64688 7.99646 4.70708 8.12667 4.76563 8.25688 L4.77047 8.25688 C4.76078 8.02896 4.75349 7.7913 4.74859 7.54391 C4.7437 7.29651 4.74125 7.06052 4.74125 6.83594 L4.74125 3.87203 C4.74125 3.83953 4.75099 3.81026 4.77047 3.78422 C4.79005 3.75818 4.8226 3.73542 4.86813 3.71594 C4.91375 3.69635 4.97396 3.6825 5.04875 3.67437 C5.12365 3.66615 5.21969 3.66203 5.33688 3.66203 C5.4476 3.66203 5.54036 3.66615 5.61516 3.67437 C5.69005 3.6825 5.74786 3.69635 5.78859 3.71594 C5.82932 3.73542 5.85781 3.75818 5.87406 3.78422 C5.89031 3.81026 5.89844 3.83953 5.89844 3.87203 L5.89844 9.55078 Z" id="GlCalibri-Bold69"/>
  <clipPath id="Clip2">
   <path d="M0 0 L160.471 0 L160.471 104.907 L0 104.907 L0 0 Z"/>
  </clipPath>
 </defs>
 <g inkscape:label="Hintergrund" inkscape:groupmode="layer" id="Hintergrund">
  <g clip-path="url(#Clip0)" style="fill:none; stroke:none" clip-rule="evenodd" id="Kopie von Gruppe6" transform="translate(64.129, 112.295) scale(1, 1)">
   <g clip-path="url(#Clip1)" style="fill:none; stroke:none" clip-rule="evenodd" id="Gruppe8" transform="translate(196.824, 0) scale(1, 1)">
    <g transform="translate(0, 0)">
     <use style="fill:#171615;stroke:none;" transform="matrix(13.1 0 0 13.1 0 -25.1367)" xlink:href="#GlCalibri62"/>
     <use style="fill:#171615;stroke:none;" transform="matrix(13.1 0 0 13.1 55 -25.1367)" xlink:href="#GlCalibri381"/>
     <use style="fill:#171615;stroke:none;" transform="matrix(13.1 0 0 13.1 124 -25.1367)" xlink:href="#GlCalibri272"/>
     <use style="fill:#171615;stroke:none;" transform="matrix(13.1 0 0 13.1 178.2 -25.1367)" xlink:href="#GlCalibri381"/>
     <path style="fill:none; stroke:none;" d="M0 0 L278.489 0 L278.489 173.366 L0 173.366 L0 0 Z"/>
    </g>
    <g transform="translate(3.84252, 119.856)">
     <use style="fill:#171615;stroke:none;" transform="matrix(13.6467 0 0 15.42 0 -48.3367)" xlink:href="#GlCalibri-Bold18"/>
     <use style="fill:#171615;stroke:none;" transform="matrix(13.6467 0 0 15.42 72.216 -48.3367)" xlink:href="#GlCalibri-Bold4"/>
     <use style="fill:#171615;stroke:none;" transform="matrix(13.6467 0 0 15.42 154.875 -48.3367)" xlink:href="#GlCalibri-Bold69"/>
     <path style="fill:none; stroke:none;" d="M0 0 L278.489 0 L278.489 147.692 L0 147.692 L0 0 Z"/>
    </g>
   </g>
   <g clip-path="url(#Clip2)" style="fill:none; stroke:none" clip-rule="evenodd" id="Gruppe6" transform="translate(29.4559, 23.7682) scale(1, 1)">
    <path style="fill:#171615; fill-rule:evenodd;stroke:none;" d="M0.00059989 5.64985 C-0.0416731 1.65892 2.15251 0 5.85746 0 C5.85746 0 30.5574 0 35.3963 0 C39.1002 0 41.3427 1.87249 41.3042 5.72295 C41.3042 5.72295 41.3427 29.1027 41.3042 34.8221 C41.2359 39.0338 39.3138 41.3047 34.9007 41.3047 C34.9007 41.3047 10.8021 41.3047 5.58869 41.3047 C1.93894 41.3047 0.0167996 39.4609 0.00059989 34.6756 L0.00059989 5.64985 Z" transform="translate(0, 0)"/>
    <path style="fill:#171615; fill-rule:evenodd;stroke:none;" d="M0.00059989 5.64985 C-0.0416731 1.65892 2.15251 0 5.85746 0 C5.85746 0 30.5574 0 35.3963 0 C39.1002 0 41.3427 1.87249 41.3042 5.72295 C41.3042 5.72295 41.3427 29.1027 41.3042 34.8221 C41.2359 39.0338 39.3138 41.3047 34.9007 41.3047 C34.9007 41.3047 10.8021 41.3047 5.58869 41.3047 C1.93894 41.3047 0.0167996 39.4609 0.00059989 34.6756 L0.00059989 5.64985 Z" transform="translate(59.5827, 0)"/>
    <path style="fill:#171615; fill-rule:evenodd;stroke:none;" d="M0.00059989 5.64985 C-0.0416731 1.65892 2.15251 0 5.85746 0 C5.85746 0 30.5574 0 35.3963 0 C39.1002 0 41.3427 1.87249 41.3042 5.72295 C41.3042 5.72295 41.3427 29.1027 41.3042 34.8221 C41.2359 39.0338 39.3138 41.3047 34.9007 41.3047 C34.9007 41.3047 10.8021 41.3047 5.58869 41.3047 C1.93894 41.3047 0.0167996 39.4609 0.00059989 34.6756 L0.00059989 5.64985 Z" transform="translate(119.15, 0)"/>
    <path style="stroke-width:9.92126; stroke-linecap:butt; stroke-linejoin:miter; stroke-dasharray:none; stroke:#171615;" d="M 0 0 L 33.7606 0" transform="translate(20.5557, 48.1868) rotate(90)"/>
    <path style="stroke-width:9.92126; stroke-linecap:butt; stroke-linejoin:miter; stroke-dasharray:none; stroke:#171615;" d="M 0 0 L 33.7606 0" transform="translate(139.839, 48.1856) rotate(90)"/>
    <path style="stroke-width:9.92126; stroke-linecap:butt; stroke-linejoin:miter; stroke-dasharray:none; stroke:#171615;" d="M 0 0 L 129.11 0" transform="translate(15.6056, 77.1024) rotate(359.973)"/>
    <path style="stroke-width:9.92126; stroke-linecap:butt; stroke-linejoin:miter; stroke-dasharray:none; stroke:#171615;" d="M 0 0 L 56.7213 0" transform="translate(80.2565, 48.1856) rotate(90)"/>
   </g>
   <path style="fill:#292928; fill-rule:evenodd;stroke:none;" d="M0 8.09739 L70.7923 8.09739 L70.7923 32.5863 L96.8629 32.5863 C96.8629 32.5863 96.9249 22.9821 96.8629 17.1017 C96.6688 13.0223 100.211 10.4277 103.584 10.5951 C103.584 10.5951 109.691 10.6767 114.937 10.6508 C118.184 10.5951 122.368 12.3527 122.315 17.0921 L122.315 32.5863 L152.533 32.5863 L152.533 10.3559 L145.824 5.65697 L145.824 0 L174.203 0 L174.18 6.167 L167.885 10.2675 L167.885 32.5863 L180.6 32.5863 L180.6 69.0408 L189.927 69.0408 L189.927 81.605 C189.927 81.605 184.857 81.6702 176.466 81.605 C176.373 89.8103 173.395 97.066 163.489 97.066 C154.26 97.066 149.657 89.4564 149.668 81.4896 C149.668 81.4896 146.317 81.4048 142.044 81.605 C141.895 89.5449 138.736 97.066 129.135 97.066 C118.969 97.066 114.817 89.9873 114.834 81.605 L105.781 81.605 C105.781 81.605 102.994 97.066 85.1716 97.066 C67.1614 97.066 65.3164 81.605 65.3164 81.605 L55.6246 81.605 C55.6246 81.605 53.1482 97.066 36.9966 97.066 C20.9496 97.066 19.0985 81.605 19.0985 81.605 L4.99774 81.605 L4.99774 49.8223 L18.1326 49.8223 L18.1326 26.841 L0 26.841 L0 8.09739 M33.7628 27.3218 L56.3406 27.3218 L56.3406 49.3839 L33.7628 49.3839 L33.7628 27.3218 " transform="translate(0, 128.538)"/>
  </g>
 </g>
</svg>
